<svg viewBox="0 0 504 432" fill="none" xmlns="http://www.w3.org/2000/svg">
  <path d="M0 0h504v432H0z"/>
  <path d="M109.1 134.7C56.1 168.8 35.5 173.6 2 177c46-40 98.8-105 107.1-117 8.4-12 57.3-67.8 92.5-57.8 25.2 2 34.9 8.5 54.2 24a101.4 101.4 0 0143-24c42.5-4.6 62.2 15.3 96 57.8 39.5 52.2 62.9 77.8 107.2 117-15.4 4.4-38.3-4.5-107.1-42.3-39.1-23.8-60-25.7-96-17-40.2 20-60.7 13-97.3 0-32.7-12.3-53.8-3.7-92.5 17z" fill="#000" stroke="#000"/>
  <path d="M99.7 171A396.5 396.5 0 0128 187.6c23 28.4 39.3 43 77.3 66 2.6 13 2.7 20 0 32.3A89.4 89.4 0 0097 320c1.8 15.3 6.3 17.5 15.2 20 10.4-.3 15.5-1.5 18.7-11.7 3-10.4 2-18.2-4.2-35.7-3.5-15.6-2-20.3 1.4-27.4 4.1-6.3 7.5-7.6 15.9-5.2 7.7 3.3 11.5 10 18.2 23.8a50 50 0 01-3.5 30.1c-2 10-.7 13.5 6 15.8 6.6-.1 9.6-1.7 10.2-14.2-.5-12.1-.3-19 1.5-31.7 1-4.5 2.6-6.2 8.9-6.5 7 2 10.1 4.4 13.7 11 1.2 5.7 1.5 9.5-1.7 21.3 1.2 5.8 2.7 8 7.5 8.9 3.4.5 4.7-1 5.6-7.7a30 30 0 01-1.3-12.5c.8-6.9 1.8-10 5.9-11.7 10.2-2.6 11 .8 13.6 5.6 2.5 5.6 1.3 12.6-2.1 27-.8 9.8 1.2 12 6.8 13.2 3.9.5 6.1-1.7 10.2-7.3 2.3-1.7 3.5-1.8 5.5 0 2.3 3.6 3.6 4.4 6 5.2h0c3.3-.4 5.1-.6 5.2-8.7-3.7-4.5-5.3-7-5.2-10.8 1-8.4 2.1-12.2 7.3-14.7a72.8 72.8 0 0126-1c6.5 3.7 8.7 7 8.8 15.7-1 5.4-.7 8.2 0 13.1 2.4 10.2 4.4 15.1 12.6 17 9.4 0 12.5-3 13.2-15.6a91.3 91.3 0 01-3-18.4c1.3-12.3 3.1-16.4 9.2-17.3 7.5-.5 10 2.4 9.4 17.3-3.8 17-1 21.4 9.7 22.8 8-2.1 11.4-5.2 7.5-22.8-2.6-9-3.5-14-4.6-23.4-2-8.8.2-13 11.5-18.7 7.4-4 12.5-4.7 23-3.6 4.6 6 4 10.9 1.5 20-3.5 8.5-5 13.4-6.7 22.4.9 15 3.3 20.8 13.3 23.7 7.9-2.6 9.6-8.4 9.3-23.7-3.5-17.5-3.7-28 0-48.2 48.5-36.4 67.2-52.4 76-68.3a425 425 0 01-78-17.3c-27.3-10.6-46.3-12.6-89.2-6.5-47.7 11-74.4 8.5-122 0-35-4.5-54.8-2.4-90 7.6zM133 396c-1.6-24.2-4.1-35.1-19.3-38-13.3 2.6-17.5 11.3-19.7 38 2.4 27.2 7.8 30 17.5 34.8 13.9-2.2 19.6-7.6 21.5-34.8zM326.1 384.6c-1-16.4-2.5-24-12.7-26.6-8.5 2.7-12 7.3-13.4 26.6 1.6 16.6 4.3 22.3 13.4 23.7 8.2-3.3 11.2-8.2 12.7-23.7z" fill="#000" stroke="#000"/>
</svg>
