<svg width="504" height="432" viewBox="0 0 504 432" fill="none" xmlns="http://www.w3.org/2000/svg">
<rect width="504" height="432" fill="#E5E5E5"/>
<path id="top-lip" d="M109.143 134.686C56.1015 168.826 35.4984 173.592 2 176.979C47.9757 136.992 100.77 72.0394 109.143 60.0174C117.516 47.9953 166.419 -7.80987 201.561 2.19389C226.752 4.20092 236.49 10.7114 255.759 26.2074C269.857 13.8819 279.084 8.39285 298.888 2.19389C341.34 -2.35854 361.034 17.4987 394.857 60.0174C434.296 112.167 457.692 137.812 502 176.979C486.628 181.353 463.664 172.481 394.857 134.686C355.799 110.902 334.951 108.98 298.888 117.721C258.702 137.704 238.16 130.653 201.561 117.721C168.946 105.383 147.82 113.955 109.143 134.686Z" fill="black" stroke="black"/>
<path id="bottom-lip" d="M99.7334 170.995C72.9779 179.496 57.3096 183.19 28 187.595C50.9629 216.02 67.3198 230.663 105.275 253.517C107.942 266.543 107.996 273.632 105.275 285.857C99.4309 298.991 98.1573 306.539 97.0146 320.106C98.7637 335.371 103.284 337.585 112.177 340.045C122.573 339.781 127.652 338.593 130.895 328.406C133.812 318.018 132.858 310.175 126.712 292.726C123.234 277.05 124.679 272.45 128.071 265.251C132.208 259.047 135.598 257.735 143.965 260.099C151.691 263.401 155.53 270.025 162.16 283.949C164.142 295.601 163.021 302.19 158.709 314C156.607 324.048 157.983 327.454 164.67 329.837C171.314 329.661 174.34 328.14 174.917 315.622C174.365 303.492 174.626 296.57 176.381 283.949C177.408 279.436 178.993 277.708 185.27 277.367C192.359 279.461 195.43 281.792 198.968 288.433C200.218 294.104 200.451 297.933 197.295 309.707C198.501 315.521 200.018 317.641 204.824 318.58C208.223 319.071 209.485 317.517 210.366 310.852C209.078 306.998 208.843 304.211 209.111 298.355C209.946 291.521 210.904 288.463 214.967 286.716C225.213 284.093 225.942 287.52 228.561 292.345C231.117 297.934 229.943 304.869 226.469 319.247C225.658 329.104 227.714 331.241 233.266 332.508C237.168 332.982 239.428 330.836 243.514 325.162C245.779 323.499 246.98 323.379 248.951 325.162C251.278 328.766 252.614 329.601 255.016 330.409L255.047 330.406C258.295 330.038 260.125 329.83 260.245 321.728C256.478 317.188 254.853 314.725 255.016 310.852C255.935 302.484 257.139 298.727 262.336 296.161C272.204 294.313 277.843 293.871 288.269 295.111C294.828 298.864 296.983 302.133 297.052 310.852C296.13 316.312 296.362 319.114 297.052 324.017C299.5 334.237 301.472 339.105 309.705 340.999C319.107 341.075 322.207 337.98 322.881 325.448C321.136 318.652 320.532 314.596 319.953 307.036C321.16 294.707 323.014 290.578 329.05 289.673C336.593 289.18 339.133 292.079 338.461 307.036C334.709 324.053 337.451 328.386 348.186 329.837C356.225 327.653 359.599 324.646 355.715 307.036C353.051 298.08 352.164 292.913 351.114 283.568C349.006 274.837 351.257 270.685 362.616 264.869C369.995 260.845 375.094 260.216 385.517 261.339C390.202 267.363 389.533 272.198 387.085 281.373C383.556 289.786 382.041 294.657 380.393 303.697C381.287 318.68 383.682 324.547 393.673 327.356C401.602 324.775 403.26 319.006 402.979 303.697C399.451 286.177 399.288 275.689 402.979 255.52C451.48 219.093 470.173 203.076 479 187.213C447.599 182.917 430.604 178.891 400.993 169.851C373.662 159.35 354.687 157.34 311.796 163.363C264.141 174.398 237.422 171.894 189.766 163.363C154.725 158.869 135.005 160.967 99.7334 170.995Z" fill="black" stroke="black"/>
<path id="big-drip" d="M132.952 395.975C131.403 371.829 128.878 360.883 113.737 358C100.38 360.634 96.2142 369.285 94 395.975C96.3623 423.192 101.768 426.089 111.544 430.847C125.398 428.635 131.135 423.18 132.952 395.975Z" fill="black" stroke="black"/>
<path id="lil-drip" d="M326.107 384.558C325.151 368.165 323.58 360.526 313.367 358C304.866 360.659 301.455 365.335 300 384.558C301.62 401.19 304.28 406.925 313.367 408.261C321.649 404.974 324.616 400.105 326.107 384.558Z" fill="black" stroke="black"/>
</svg>
